<svg id="Layer_1" data-name="Layer 1" xmlns="http://www.w3.org/2000/svg" viewBox="0 0 276.63 44.27"><defs><style>.cls-1{fill:#0c0d0d;}</style></defs><title>logo_boozilla</title><path class="cls-1" d="M11.75,8.7H27.21c8.22,0,13.23,4.08,13.23,11.13a9.53,9.53,0,0,1-5.75,8.47c4.45,1.49,7.67,5,7.67,11.07C42.36,47.16,37.1,52,28.2,52H11.75ZM27.08,26.63c5.2,0,8.1-2.22,8.1-6.67s-2.9-6.62-8.1-6.62H17V26.63Zm.25,20.59c6.37,0,9.65-2.78,9.65-7.91s-3.28-8-9.65-8H17V47.22Z" transform="translate(-11.75 -8.21)"/><path class="cls-1" d="M68.76,8.21C83.47,8.21,85.76,19,89,19s5.5-10.82,20.21-10.82c12,0,21.21,9.33,21.21,22.13s-9.21,22.14-21.21,22.14c-14.71,0-17-10.82-20.21-10.82S83.47,52.48,68.76,52.48c-12,0-21.21-9.4-21.21-22.14S56.76,8.21,68.76,8.21m40.49,4.7C96.7,12.91,96.08,24.72,89,24.72S81.25,12.91,68.76,12.91C59.92,12.91,53,20.33,53,30.34s6.93,17.44,15.77,17.44C81.25,47.78,81.93,36,89,36s7.66,11.81,20.21,11.81C118,47.78,125,40.36,125,30.34s-7-17.43-15.77-17.43" transform="translate(-11.75 -8.21)"/><polygon class="cls-1" points="122.98 39.01 149.44 5.26 124.4 5.26 124.4 0.49 155.5 0.49 155.5 5.26 129.53 39.01 155.56 39.01 155.56 43.77 122.98 43.77 122.98 39.01"/><rect class="cls-1" x="162.43" y="0.49" width="5.26" height="43.28"/><polygon class="cls-1" points="176.83 0.49 182.09 0.49 182.09 39.01 203.73 39.01 203.73 43.77 176.83 43.77 176.83 0.49"/><polygon class="cls-1" points="209.17 0.49 214.42 0.49 214.42 39.01 236.06 39.01 236.06 43.77 209.17 43.77 209.17 0.49"/><path class="cls-1" d="M278.42,40.3H259.13L254.62,52h-5.51L266.36,8.7h4.76L288.38,52h-5.51Zm-1.85-4.7-7.79-20.4-7.86,20.4Z" transform="translate(-11.75 -8.21)"/></svg>